# xmcd CD database file
#
# Track frame offsets:
#	150
#	15001
#	27375
#	41985
#	57829
#	68246
#	89605
#	104562
#	117604
#	134993
#	153374
#	165245
#	179150
#	194830
#	207222
#	224055
#	246084
#
# Disc length: 3567 seconds
#
# Revision: 0
# Processed by: cddbd v1.5.2PL0 Copyright (c) Steve Scherf et al.
# Submitted via: CDex 1.51
#
DISCID=0b0ded11
DTITLE=Roger Cicero - Männersachen
DYEAR=2006
DGENRE=Jazz
TTITLE0=Zieh die Schuh aus
TTITLE1=Kein Mann für eine Frau
TTITLE2=Kompromisse
TTITLE3=Ich atme ein 
TTITLE4=Schiess mich doch zum Mond
TTITLE5=Wenn sie dich fragt
TTITLE6=Fachmann in Sachen Anna
TTITLE7=Ich Idiot ließ dich gehen
TTITLE8=Mein guter Stern auf allen Wegen
TTITLE9=Murphys Gesetz
TTITLE10=Schön dass du da bist
TTITLE11=Das ganze Leben ist ein Zoo
TTITLE12=Du willst es doch auch
TTITLE13=So geil Berlin
TTITLE14=Wenn ich den Blues nicht hätt (Live)
TTITLE15=König von Deutschland (Live)
TTITLE16=Tausendmal berührt (Live)
EXTD=YEAR: 2006
EXTT0=
EXTT1=
EXTT2=
EXTT3=
EXTT4=
EXTT5=
EXTT6=
EXTT7=
EXTT8=
EXTT9=
EXTT10=
EXTT11=
EXTT12=
EXTT13=
EXTT14=
EXTT15=
EXTT16=
PLAYORDER=
